# Blender v2.78 (sub 0) OBJ File: '14.blend'
# www.blender.org
mtllib Baguette_01.mtl
g Baguette_Circle.004
v 0.000000 1.602644 3.209525
v -0.707107 1.309751 3.209525
v -1.000000 0.602644 3.209525
v -0.943830 0.012142 3.209525
v 0.000000 0.010679 3.209525
v 0.943831 0.012142 3.209525
v 1.000000 0.602644 3.209525
v 0.707107 1.309751 3.209525
v 1.000000 0.602644 0.770779
v 1.000000 0.602644 -1.608006
v 0.617540 1.249605 1.107676
v 0.617540 1.249605 0.599565
v 0.000000 0.010679 1.327374
v 0.000000 0.010679 -1.051412
v 0.943831 0.012142 -1.608006
v 0.943831 0.012142 0.770779
v -1.000000 0.602644 1.991042
v -1.000000 0.602644 -0.387743
v -0.943830 0.012142 -0.387743
v -0.943830 0.012142 1.991042
v 0.682001 1.013052 0.783713
v 0.617540 1.249604 -1.271109
v 0.617540 1.249604 -1.779220
v 0.682001 1.013053 -1.595072
v 0.707107 1.309751 -1.936660
v 0.707107 1.309751 -1.321314
v 0.780927 1.042142 -1.673526
v 0.707107 1.309751 0.442126
v 0.707107 1.309751 1.057470
v 0.780927 1.042142 0.705259
v 0.000000 1.602644 0.919693
v 0.000000 1.602644 1.635046
v 0.000000 1.602644 -1.416854
v 0.000000 1.602644 -0.701500
v -0.707107 1.309751 -0.182507
v -0.707107 1.309751 -0.837094
v -0.789602 1.086243 -0.500389
v -0.707107 1.309751 2.196278
v -0.707107 1.309751 1.541691
v -0.789602 1.086244 1.878397
v -0.691454 1.056145 -0.580181
v -0.617377 1.249604 -0.342672
v -0.617377 1.249604 -0.782418
v -0.691454 1.056145 1.798604
v -0.617377 1.249604 2.036114
v -0.617377 1.249604 1.596367
v 0.000082 1.491456 1.076489
v 0.000082 1.491456 1.584599
v 0.000082 1.491456 -1.302297
v 0.000082 1.491456 -0.794186
v 0.000000 1.485506 4.046021
v -0.617060 1.229912 4.046021
v -0.872654 0.612852 4.046021
v -0.823638 0.097547 4.046021
v 0.000000 0.096271 4.046021
v 0.823638 0.097548 4.046021
v 0.872655 0.612852 4.046021
v 0.617060 1.229911 4.046021
v 0.000000 1.117088 4.736550
v -0.333847 0.978803 4.736550
v -0.472132 0.644956 4.736550
v -0.445612 0.366161 4.736550
v 0.000000 0.365470 4.736550
v 0.445612 0.366161 4.736550
v 0.472132 0.644956 4.736550
v 0.333848 0.978803 4.736550
v 0.000000 0.828886 4.957516
v -0.112300 0.782370 4.933305
v -0.158816 0.670070 4.933305
v -0.149895 0.576289 4.933305
v 0.000000 0.576056 4.957516
v 0.149895 0.576289 4.933305
v 0.158816 0.670070 4.933305
v 0.112300 0.782370 4.933305
v 0.000000 0.670082 4.957516
v 0.000000 1.602644 -3.209367
v 0.707107 1.309752 -3.209367
v 1.000000 0.602644 -3.209367
v 0.943831 0.012142 -3.209367
v 0.000000 0.010679 -3.209367
v -0.943830 0.012142 -3.209367
v -1.000000 0.602644 -3.209367
v -0.707107 1.309751 -3.209367
v 0.000000 1.485506 -4.045863
v 0.617060 1.229911 -4.045863
v 0.872655 0.612851 -4.045863
v 0.823638 0.097547 -4.045863
v 0.000000 0.096271 -4.045863
v -0.823638 0.097547 -4.045863
v -0.872654 0.612851 -4.045863
v -0.617060 1.229911 -4.045863
v 0.000000 1.117087 -4.736390
v 0.333848 0.978803 -4.736390
v 0.472132 0.644955 -4.736390
v 0.445612 0.366160 -4.736390
v -0.000000 0.365470 -4.736390
v -0.445612 0.366160 -4.736390
v -0.472132 0.644956 -4.736390
v -0.333847 0.978803 -4.736390
v -0.000000 0.828885 -4.957356
v 0.112300 0.782369 -4.933146
v 0.158816 0.670070 -4.933146
v 0.149895 0.576288 -4.933146
v -0.000000 0.576056 -4.957356
v -0.149895 0.576288 -4.933146
v -0.158816 0.670070 -4.933146
v -0.112300 0.782369 -4.933146
v -0.000000 0.670082 -4.957356
vn 0.9228 0.3851 -0.0071
vn 0.9955 -0.0947 0.0000
vn -0.0015 -1.0000 0.0000
vn -0.9955 -0.0947 -0.0000
vn 0.9215 0.3883 0.0000
vn 0.9219 0.3871 0.0113
vn 0.0015 -1.0000 0.0000
vn -0.9232 0.3843 -0.0000
vn -0.9235 0.3836 -0.0037
vn -0.3827 0.9239 -0.0000
vn 0.3827 0.9239 0.0000
vn -0.9235 0.3836 0.0017
vn 0.3795 0.9162 0.1283
vn 0.9841 -0.0936 0.1510
vn -0.0015 -0.9948 0.1018
vn -0.9155 0.3792 0.1347
vn 0.9155 0.3792 0.1347
vn 0.0015 -0.9948 0.1018
vn -0.9841 -0.0936 0.1510
vn -0.3795 0.9162 0.1283
vn -0.3432 0.8287 0.4421
vn 0.3432 0.8287 0.4421
vn 0.8605 -0.0818 0.5029
vn -0.0014 -0.9317 0.3632
vn -0.8203 0.3398 0.4600
vn 0.8203 0.3398 0.4600
vn 0.0014 -0.9317 0.3632
vn -0.8605 -0.0818 0.5029
vn 0.5314 0.2201 0.8181
vn 0.0303 -0.6934 0.7199
vn -0.5282 -0.0502 0.8476
vn -0.2721 0.5539 0.7869
vn 0.2721 0.5539 0.7869
vn 0.5282 -0.0502 0.8476
vn -0.0303 -0.6934 0.7199
vn -0.5314 0.2201 0.8181
vn 0.1550 -0.0074 0.9879
vn -0.1809 0.0310 0.9830
vn 0.1809 0.0310 0.9830
vn -0.1550 -0.0074 0.9879
vn -0.3795 0.9162 -0.1283
vn -0.9841 -0.0936 -0.1510
vn 0.0015 -0.9948 -0.1018
vn 0.9155 0.3792 -0.1347
vn -0.9155 0.3792 -0.1347
vn -0.0015 -0.9948 -0.1018
vn 0.9841 -0.0936 -0.1510
vn 0.3795 0.9162 -0.1283
vn 0.3432 0.8287 -0.4421
vn -0.3432 0.8287 -0.4421
vn -0.8605 -0.0818 -0.5029
vn 0.0014 -0.9317 -0.3632
vn 0.8203 0.3398 -0.4600
vn -0.8203 0.3398 -0.4600
vn -0.0014 -0.9317 -0.3632
vn 0.8605 -0.0818 -0.5029
vn -0.5314 0.2201 -0.8181
vn -0.0303 -0.6934 -0.7199
vn 0.5282 -0.0502 -0.8476
vn 0.2721 0.5539 -0.7869
vn -0.2721 0.5539 -0.7869
vn -0.5282 -0.0502 -0.8476
vn 0.0303 -0.6934 -0.7199
vn 0.5314 0.2201 -0.8181
vn -0.1550 -0.0074 -0.9879
vn 0.1809 0.0310 -0.9830
vn -0.1809 0.0310 -0.9830
vn 0.1550 -0.0074 -0.9879
vn 0.9648 0.2629 0.0000
vn -0.6516 0.4281 -0.6262
vn 0.4030 0.6635 0.6304
vn 0.1726 0.7999 0.5748
vn 0.4456 0.6594 0.6055
vn -0.4642 0.4339 -0.7722
vn -0.6321 0.5537 -0.5421
vn -0.2828 0.8037 -0.5236
vn -0.9339 0.3576 0.0000
vn 0.3647 0.9311 0.0000
vn -0.3647 0.9311 0.0000
vn 0.6106 0.6092 0.5060
vn 0.2249 0.7419 0.6317
vn -0.2828 0.8036 -0.5236
vn -0.6316 0.5190 -0.5760
vn -0.5277 0.2767 -0.8031
vn 0.6337 0.5433 0.5507
usemtl DD9944
s off
f 8//1 7//1 9//1 30//1 29//1
f 15//2 79//2 78//2 10//2
f 19//3 81//3 80//3 14//3
f 18//4 82//4 81//4 19//4
f 28//5 30//5 9//5 10//5 27//5 26//5
f 10//6 78//6 77//6 25//6 27//6
f 14//7 80//7 79//7 15//7
f 17//8 40//8 39//8 35//8 37//8 18//8
f 3//9 2//9 38//9 40//9 17//9
f 5//3 4//3 20//3 13//3
f 13//3 20//3 19//3 14//3
f 7//2 6//2 16//2 9//2
f 9//2 16//2 15//2 10//2
f 39//10 31//10 34//10 35//10
f 25//11 77//11 76//11 33//11
f 36//12 83//12 82//12 18//12 37//12
f 2//10 1//10 32//10 38//10
f 4//4 3//4 17//4 20//4
f 20//4 17//4 18//4 19//4
f 6//7 5//7 13//7 16//7
f 16//7 13//7 14//7 15//7
f 1//11 8//11 29//11 32//11
f 31//11 28//11 26//11 34//11
f 8//13 1//13 51//13 58//13
f 6//14 7//14 57//14 56//14
f 4//15 5//15 55//15 54//15
f 2//16 3//16 53//16 52//16
f 7//17 8//17 58//17 57//17
f 5//18 6//18 56//18 55//18
f 3//19 4//19 54//19 53//19
f 1//20 2//20 52//20 51//20
f 51//21 52//21 60//21 59//21
f 58//22 51//22 59//22 66//22
f 56//23 57//23 65//23 64//23
f 54//24 55//24 63//24 62//24
f 52//25 53//25 61//25 60//25
f 57//26 58//26 66//26 65//26
f 55//27 56//27 64//27 63//27
f 53//28 54//28 62//28 61//28
f 65//29 66//29 74//29 73//29
f 63//30 64//30 72//30 71//30
f 61//31 62//31 70//31 69//31
f 59//32 60//32 68//32 67//32
f 66//33 59//33 67//33 74//33
f 64//34 65//34 73//34 72//34
f 62//35 63//35 71//35 70//35
f 60//36 61//36 69//36 68//36
f 72//37 73//37 75//37 71//37
f 68//38 69//38 75//38 67//38
f 75//39 73//39 74//39 67//39
f 75//40 69//40 70//40 71//40
f 83//41 76//41 84//41 91//41
f 81//42 82//42 90//42 89//42
f 79//43 80//43 88//43 87//43
f 77//44 78//44 86//44 85//44
f 82//45 83//45 91//45 90//45
f 80//46 81//46 89//46 88//46
f 78//47 79//47 87//47 86//47
f 76//48 77//48 85//48 84//48
f 84//49 85//49 93//49 92//49
f 91//50 84//50 92//50 99//50
f 89//51 90//51 98//51 97//51
f 87//52 88//52 96//52 95//52
f 85//53 86//53 94//53 93//53
f 90//54 91//54 99//54 98//54
f 88//55 89//55 97//55 96//55
f 86//56 87//56 95//56 94//56
f 98//57 99//57 107//57 106//57
f 96//58 97//58 105//58 104//58
f 94//59 95//59 103//59 102//59
f 92//60 93//60 101//60 100//60
f 99//61 92//61 100//61 107//61
f 97//62 98//62 106//62 105//62
f 95//63 96//63 104//63 103//63
f 93//64 94//64 102//64 101//64
f 105//65 106//65 108//65 104//65
f 101//66 102//66 108//66 100//66
f 108//67 106//67 107//67 100//67
f 108//68 102//68 103//68 104//68
f 33//10 76//10 83//10 36//10
usemtl FFCC88
f 23//69 22//69 24//69
f 38//70 32//70 48//70 45//70
f 39//71 40//71 44//71 46//71
f 31//72 39//72 46//72 47//72
f 30//73 28//73 12//73 21//73
f 34//74 26//74 22//74 50//74
f 26//75 27//75 24//75 22//75
f 40//76 38//76 45//76 44//76
f 36//71 37//71 41//71 43//71
f 12//69 11//69 21//69
f 42//77 43//77 41//77
f 45//77 46//77 44//77
f 12//78 47//78 48//78 11//78
f 23//78 49//78 50//78 22//78
f 47//79 46//79 45//79 48//79
f 49//79 43//79 42//79 50//79
f 28//80 31//80 47//80 12//80
f 29//75 30//75 21//75 11//75
f 33//81 36//81 43//81 49//81
f 37//82 35//82 42//82 41//82
f 35//83 34//83 50//83 42//83
f 32//84 29//84 11//84 48//84
f 27//73 25//73 23//73 24//73
f 25//85 33//85 49//85 23//85
