# 3ds Max Wavefront OBJ Exporter v0.97b - (c)2007 guruware
# File Created: 10.09.2017 15:24:01

mtllib French fries.mtl

#
# object Box004
#

v  2520587.2500 108938.5313 -1108832.5000
v  2463920.7500 108938.5391 -1010683.3125
v  2463920.7500 -4394.3438 -1010683.3125
v  2520587.2500 -4394.3516 -1108832.5000
v  1199260.8750 108938.6328 -2035139.3750
v  1199260.8750 -4394.2500 -2035139.3750
v  1156981.5000 -4394.2461 -1933143.0000
v  1156981.5000 108938.6406 -1933143.0000
v  2064701.2500 -4394.3164 -1372038.2500
v  2064701.2500 108938.5625 -1372038.2500
v  2197352.2500 108938.5547 -1295452.2500
v  2197352.2500 -4394.3281 -1295452.2500
v  2008034.8750 -4394.3086 -1273889.1250
v  2140685.7500 -4394.3203 -1197303.0000
v  2008034.8750 108938.5781 -1273889.1250
v  2140685.7500 108938.5625 -1197303.0000
v  1476021.2500 108938.6094 -1793459.2500
v  1476021.2500 -4394.2695 -1793459.2500
v  1702207.5000 108938.5938 -1616538.2500
v  1702207.5000 -4394.2891 -1616538.2500
v  1386684.3750 -4394.2617 -1718631.5000
v  1645044.5000 -4394.2852 -1517883.8750
v  1386684.3750 108938.6250 -1718631.5000
v  1645044.5000 108938.5938 -1517883.8750
# 24 vertices

vn 0.8660 -0.0000 0.5000
vn -0.9100 0.0000 -0.4145
vn 0.5000 -0.0000 -0.8660
vn -0.0000 -1.0000 -0.0000
vn -0.5000 0.0000 0.8660
vn 0.0000 1.0000 0.0000
vn 0.7071 -0.0000 -0.7071
vn 0.6545 -0.0000 -0.7561
vn -0.7374 0.0000 0.6755
vn -0.6512 0.0000 0.7589
vn 0.5799 -0.0000 -0.8147
vn -0.5781 0.0000 0.8160
# 12 vertex normals

vt 1.0000 0.0000 0.0000
vt 1.0000 1.0000 0.0000
vt 0.0000 1.0000 0.0000
vt 0.0000 0.0000 0.0000
vt 1.0000 0.3526 0.0000
vt 0.0000 0.3526 0.0000
vt 0.0000 0.2500 0.0000
vt 1.0000 0.2500 0.0000
vt 0.0000 0.7500 0.0000
vt 1.0000 0.7500 0.0000
vt 0.0000 0.6080 0.0000
vt 1.0000 0.6080 0.0000
vt 1.0000 0.6001 0.0000
vt 0.0000 0.6001 0.0000
# 14 texture coords

g Box004
usemtl _crayfishdiffuse
s off
f -24/-14/-12 -23/-13/-12 -22/-12/-12 -21/-11/-12 
f -20/-11/-11 -19/-14/-11 -18/-13/-11 -17/-12/-11 
f -16/-10/-10 -15/-9/-10 -14/-8/-10 -13/-7/-10 
f -12/-10/-9 -16/-9/-9 -13/-8/-9 -11/-7/-9 
f -10/-10/-8 -12/-9/-8 -11/-8/-8 -9/-7/-8 
f -15/-10/-7 -10/-9/-7 -9/-8/-7 -14/-7/-7 
f -19/-13/-6 -20/-12/-6 -8/-6/-6 -7/-5/-6 
f -7/-5/-5 -8/-6/-5 -6/-4/-5 -5/-3/-5 
f -24/-11/-10 -21/-14/-10 -13/-7/-10 -14/-8/-10 
f -18/-13/-9 -19/-12/-9 -7/-6/-9 -4/-5/-9 
f -4/-5/-9 -7/-6/-9 -5/-4/-9 -3/-2/-9 
f -21/-11/-9 -22/-14/-9 -11/-7/-9 -13/-8/-9 
f -17/-13/-4 -18/-12/-4 -4/-6/-4 -2/-5/-4 
f -2/-5/-3 -4/-6/-3 -3/-1/-3 -1/-2/-3 
f -22/-11/-8 -23/-14/-8 -9/-7/-8 -11/-8/-8 
f -20/-13/-7 -17/-12/-7 -2/-6/-7 -8/-5/-7 
f -8/-5/-7 -2/-6/-7 -1/-1/-7 -6/-3/-7 
f -23/-11/-7 -24/-14/-7 -14/-7/-7 -9/-8/-7 
f -16/-10/-2 -5/-3/-2 -6/-4/-2 -15/-9/-2 
f -12/-10/-9 -3/-2/-9 -5/-4/-9 -16/-9/-9 
f -10/-10/-1 -1/-2/-1 -3/-1/-1 -12/-9/-1 
f -15/-10/-7 -6/-3/-7 -1/-1/-7 -10/-9/-7 
# 22 polygons

#
# object Box005
#

v  2303195.7500 111576.3281 -330590.1875
v  2255299.2500 111576.3281 -227875.6875
v  2255299.2500 -1756.5508 -227875.6875
v  2303195.7500 -1756.5508 -330590.1875
v  1293453.5000 111576.3750 -957615.0625
v  1293453.5000 -1756.5078 -957615.0625
v  1256759.2500 -1756.5039 -853937.8125
v  1256759.2500 111576.3750 -853937.8125
v  1952934.6250 -1756.5352 -493919.5313
v  1952934.6250 111576.3438 -493919.5313
v  2054851.5000 111576.3438 -446394.9375
v  2054851.5000 -1756.5391 -446394.9063
v  1905038.1250 -1756.5352 -391205.0313
v  2006955.0000 -1756.5391 -343680.4375
v  1905038.1250 111576.3438 -391205.0313
v  2006955.0000 111576.3438 -343680.4375
v  1503363.0000 111576.3594 -781480.0625
v  1503363.0000 -1756.5195 -781480.0625
v  1675600.5000 111576.3594 -656891.5000
v  1675600.5000 -1756.5234 -656891.5000
v  1430514.0000 -1756.5117 -694662.0000
v  1627296.0000 -1756.5234 -553610.3750
v  1430514.0000 111576.3750 -694662.0000
v  1627296.0000 111576.3594 -553610.3750
# 24 vertices

vn 0.9063 -0.0000 0.4226
vn -0.9427 0.0000 -0.3336
vn 0.4226 -0.0000 -0.9063
vn -0.0000 -1.0000 -0.0000
vn -0.4226 0.0000 0.9063
vn 0.0000 1.0000 -0.0000
vn 0.6428 -0.0000 -0.7660
vn 0.5861 -0.0000 -0.8102
vn -0.6757 0.0000 0.7372
vn -0.5826 0.0000 0.8128
vn 0.5066 -0.0000 -0.8622
vn -0.5048 0.0000 0.8633
# 12 vertex normals

vt 1.0000 0.0000 0.0000
vt 1.0000 1.0000 0.0000
vt 0.0000 1.0000 0.0000
vt 0.0000 0.0000 0.0000
vt 1.0000 0.3526 0.0000
vt 0.0000 0.3526 0.0000
vt 0.0000 0.2500 0.0000
vt 1.0000 0.2500 0.0000
vt 0.0000 0.7500 0.0000
vt 1.0000 0.7500 0.0000
vt 0.0000 0.6080 0.0000
vt 1.0000 0.6080 0.0000
vt 1.0000 0.6001 0.0000
vt 0.0000 0.6001 0.0000
# 14 texture coords

g Box005
usemtl _crayfishdiffuse
s off
f -24/-14/-12 -23/-13/-12 -22/-12/-12 -21/-11/-12 
f -20/-11/-11 -19/-14/-11 -18/-13/-11 -17/-12/-11 
f -16/-10/-10 -15/-9/-10 -14/-8/-10 -13/-7/-10 
f -12/-10/-9 -16/-9/-9 -13/-8/-9 -11/-7/-9 
f -10/-10/-8 -12/-9/-8 -11/-8/-8 -9/-7/-8 
f -15/-10/-7 -10/-9/-7 -9/-8/-7 -14/-7/-7 
f -19/-13/-6 -20/-12/-6 -8/-6/-6 -7/-5/-6 
f -7/-5/-5 -8/-6/-5 -6/-4/-5 -5/-3/-5 
f -24/-11/-10 -21/-14/-10 -13/-7/-10 -14/-8/-10 
f -18/-13/-9 -19/-12/-9 -7/-6/-9 -4/-5/-9 
f -4/-5/-9 -7/-6/-9 -5/-4/-9 -3/-2/-9 
f -21/-11/-9 -22/-14/-9 -11/-7/-9 -13/-8/-9 
f -17/-13/-4 -18/-12/-4 -4/-6/-4 -2/-5/-4 
f -2/-5/-3 -4/-6/-3 -3/-1/-3 -1/-2/-3 
f -22/-11/-8 -23/-14/-8 -9/-7/-8 -11/-8/-8 
f -20/-13/-7 -17/-12/-7 -2/-6/-7 -8/-5/-7 
f -8/-5/-7 -2/-6/-7 -1/-1/-7 -6/-3/-7 
f -23/-11/-7 -24/-14/-7 -14/-7/-7 -9/-8/-7 
f -16/-10/-2 -5/-3/-2 -6/-4/-2 -15/-9/-2 
f -12/-10/-9 -3/-2/-9 -5/-4/-9 -16/-9/-9 
f -10/-10/-1 -1/-2/-1 -3/-1/-1 -12/-9/-1 
f -15/-10/-7 -6/-3/-7 -1/-1/-7 -10/-9/-7 
# 22 polygons

#
# object Box006
#

v  665842.7500 108938.5313 -222847.6719
v  563128.2500 108938.5391 -270744.2188
v  563128.2500 -4394.3438 -270744.2188
v  665842.7500 -4394.3516 -222847.6719
v  1473463.6250 108938.4688 -1619879.0000
v  1473463.6250 -4394.4102 -1619879.0000
v  1368170.5000 -4394.4063 -1653107.7500
v  1368170.5000 108938.4766 -1653107.7500
v  888313.8750 -4394.3672 -699938.6250
v  888313.8750 108938.5156 -699938.6250
v  823580.6250 108938.5156 -561117.6250
v  823580.5625 -4394.3633 -561117.5625
v  785599.4375 -4394.3594 -747835.2500
v  720866.0625 -4394.3555 -609014.1250
v  785599.4375 108938.5234 -747835.2500
v  720866.1250 108938.5313 -609014.1250
v  1256824.5000 108938.4844 -1323107.7500
v  1256824.5000 -4394.3945 -1323107.7500
v  1100290.1250 108938.5000 -1082362.5000
v  1100290.1250 -4394.3867 -1082362.5000
v  1174495.2500 -4394.3906 -1405583.0000
v  997029.0000 -4394.3789 -1130709.7500
v  1174495.2500 108938.4922 -1405583.0000
v  997029.0000 108938.5000 -1130709.7500
# 24 vertices

vn -0.4226 0.0000 0.9063
vn 0.3336 -0.0000 -0.9427
vn 0.9063 -0.0000 0.4226
vn -0.0000 -1.0000 -0.0000
vn -0.9063 0.0000 -0.4226
vn 0.0000 1.0000 0.0000
vn 0.7660 -0.0000 0.6428
vn 0.8102 -0.0000 0.5861
vn -0.7372 0.0000 -0.6757
vn -0.8128 0.0000 -0.5826
vn 0.8622 -0.0000 0.5066
vn -0.8633 0.0000 -0.5048
# 12 vertex normals

vt 1.0000 0.0000 0.0000
vt 1.0000 1.0000 0.0000
vt 0.0000 1.0000 0.0000
vt 0.0000 0.0000 0.0000
vt 1.0000 0.3526 0.0000
vt 0.0000 0.3526 0.0000
vt 0.0000 0.2500 0.0000
vt 1.0000 0.2500 0.0000
vt 0.0000 0.7500 0.0000
vt 1.0000 0.7500 0.0000
vt 0.0000 0.6080 0.0000
vt 1.0000 0.6080 0.0000
vt 1.0000 0.6001 0.0000
vt 0.0000 0.6001 0.0000
# 14 texture coords

g Box006
usemtl _crayfishdiffuse
s off
f -24/-14/-12 -23/-13/-12 -22/-12/-12 -21/-11/-12 
f -20/-11/-11 -19/-14/-11 -18/-13/-11 -17/-12/-11 
f -16/-10/-10 -15/-9/-10 -14/-8/-10 -13/-7/-10 
f -12/-10/-9 -16/-9/-9 -13/-8/-9 -11/-7/-9 
f -10/-10/-8 -12/-9/-8 -11/-8/-8 -9/-7/-8 
f -15/-10/-7 -10/-9/-7 -9/-8/-7 -14/-7/-7 
f -19/-13/-6 -20/-12/-6 -8/-6/-6 -7/-5/-6 
f -7/-5/-5 -8/-6/-5 -6/-4/-5 -5/-3/-5 
f -24/-11/-10 -21/-14/-10 -13/-7/-10 -14/-8/-10 
f -18/-13/-9 -19/-12/-9 -7/-6/-9 -4/-5/-9 
f -4/-5/-9 -7/-6/-9 -5/-4/-9 -3/-2/-9 
f -21/-11/-9 -22/-14/-9 -11/-7/-9 -13/-8/-9 
f -17/-13/-4 -18/-12/-4 -4/-6/-4 -2/-5/-4 
f -2/-5/-3 -4/-6/-3 -3/-1/-3 -1/-2/-3 
f -22/-11/-8 -23/-14/-8 -9/-7/-8 -11/-8/-8 
f -20/-13/-7 -17/-12/-7 -2/-6/-7 -8/-5/-7 
f -8/-5/-7 -2/-6/-7 -1/-1/-7 -6/-3/-7 
f -23/-11/-7 -24/-14/-7 -14/-7/-7 -9/-8/-7 
f -16/-10/-2 -5/-3/-2 -6/-4/-2 -15/-9/-2 
f -12/-10/-9 -3/-2/-9 -5/-4/-9 -16/-9/-9 
f -10/-10/-1 -1/-2/-1 -3/-1/-1 -12/-9/-1 
f -15/-10/-7 -6/-3/-7 -1/-1/-7 -10/-9/-7 
# 22 polygons

#
# object Box007
#

v  2516658.2500 -1756.5586 -705235.3750
v  2564554.7500 -1756.5586 -807949.8750
v  2564554.7500 111576.3281 -807949.8750
v  2516658.2500 111576.3281 -705235.3750
v  1387279.2500 -1756.5469 -1075699.0000
v  1387279.2500 111576.3359 -1075699.0000
v  1443114.0000 111576.3359 -1170450.8750
v  1443114.0000 -1756.5469 -1170450.8750
v  2166397.0000 111576.3281 -868564.8750
v  2166397.0000 -1756.5547 -868564.8750
v  2268314.0000 -1756.5547 -821040.2500
v  2268314.0000 111576.3281 -821040.1875
v  2214293.7500 111576.3281 -971279.3125
v  2316210.5000 111576.3281 -923754.6875
v  2214293.7500 -1756.5547 -971279.3125
v  2316210.5000 -1756.5547 -923754.6875
v  1657133.7500 -1756.5469 -1028116.3125
v  1657133.7500 111576.3359 -1028116.3125
v  1863286.3750 -1756.5508 -976258.7500
v  1863286.3750 111576.3281 -976258.7500
v  1676813.8750 111576.3359 -1139727.5000
v  1911354.7500 111576.3281 -1079649.8750
v  1676813.8750 -1756.5469 -1139727.5000
v  1911354.7500 -1756.5508 -1079649.8750
# 24 vertices

vn 0.9063 -0.0000 0.4226
vn -0.8615 0.0000 -0.5077
vn -0.4226 0.0000 0.9063
vn 0.0000 1.0000 -0.0000
vn 0.4226 -0.0000 -0.9063
vn -0.0000 -1.0000 -0.0000
vn -0.1736 0.0000 0.9848
vn -0.2439 0.0000 0.9698
vn 0.1303 -0.0000 -0.9915
vn 0.2481 -0.0000 -0.9687
vn -0.3348 0.0000 0.9423
vn 0.3368 -0.0000 -0.9416
# 12 vertex normals

vt 1.0000 0.0000 0.0000
vt 1.0000 1.0000 0.0000
vt 0.0000 1.0000 0.0000
vt 0.0000 0.0000 0.0000
vt 1.0000 0.3526 0.0000
vt 0.0000 0.3526 0.0000
vt 0.0000 0.2500 0.0000
vt 1.0000 0.2500 0.0000
vt 0.0000 0.7500 0.0000
vt 1.0000 0.7500 0.0000
vt 0.0000 0.6080 0.0000
vt 1.0000 0.6080 0.0000
vt 1.0000 0.6001 0.0000
vt 0.0000 0.6001 0.0000
# 14 texture coords

g Box007
usemtl _crayfishdiffuse
s off
f -24/-14/-12 -23/-13/-12 -22/-12/-12 -21/-11/-12 
f -20/-11/-11 -19/-14/-11 -18/-13/-11 -17/-12/-11 
f -16/-10/-10 -15/-9/-10 -14/-8/-10 -13/-7/-10 
f -12/-10/-9 -16/-9/-9 -13/-8/-9 -11/-7/-9 
f -10/-10/-8 -12/-9/-8 -11/-8/-8 -9/-7/-8 
f -15/-10/-7 -10/-9/-7 -9/-8/-7 -14/-7/-7 
f -19/-13/-6 -20/-12/-6 -8/-6/-6 -7/-5/-6 
f -7/-5/-5 -8/-6/-5 -6/-4/-5 -5/-3/-5 
f -24/-11/-10 -21/-14/-10 -13/-7/-10 -14/-8/-10 
f -18/-13/-9 -19/-12/-9 -7/-6/-9 -4/-5/-9 
f -4/-5/-9 -7/-6/-9 -5/-4/-9 -3/-2/-9 
f -21/-11/-9 -22/-14/-9 -11/-7/-9 -13/-8/-9 
f -17/-13/-4 -18/-12/-4 -4/-6/-4 -2/-5/-4 
f -2/-5/-3 -4/-6/-3 -3/-1/-3 -1/-2/-3 
f -22/-11/-8 -23/-14/-8 -9/-7/-8 -11/-8/-8 
f -20/-13/-7 -17/-12/-7 -2/-6/-7 -8/-5/-7 
f -8/-5/-7 -2/-6/-7 -1/-1/-7 -6/-3/-7 
f -23/-11/-7 -24/-14/-7 -14/-7/-7 -9/-8/-7 
f -16/-10/-2 -5/-3/-2 -6/-4/-2 -15/-9/-2 
f -12/-10/-9 -3/-2/-9 -5/-4/-9 -16/-9/-9 
f -10/-10/-1 -1/-2/-1 -3/-1/-1 -12/-9/-1 
f -15/-10/-7 -6/-3/-7 -1/-1/-7 -10/-9/-7 
# 22 polygons

#
# object Box008
#

v  3035863.7500 -1756.5586 -1439576.2500
v  3063545.2500 -1756.5586 -1549648.5000
v  3063545.2500 111576.3281 -1549648.5000
v  3035863.7500 111576.3281 -1439576.2500
v  1664865.3750 -1756.5430 -1679070.0000
v  1664865.3750 111576.3438 -1679070.0000
v  1703562.0000 111576.3438 -1782018.5000
v  1703562.0000 -1756.5430 -1782018.5000
v  2598209.0000 111576.3281 -1563024.8750
v  2598209.0000 -1756.5547 -1563024.8750
v  2725555.0000 -1756.5547 -1527104.5000
v  2725555.2500 111576.3281 -1527104.5000
v  2625890.7500 111576.3281 -1673097.0000
v  2753236.7500 111576.3281 -1637176.6250
v  2625890.7500 -1756.5547 -1673097.0000
v  2753236.7500 -1756.5547 -1637176.6250
v  1981922.8750 -1756.5469 -1663404.7500
v  1981922.8750 111576.3359 -1663404.7500
v  2228124.5000 -1756.5508 -1635693.8750
v  2228124.5000 111576.3281 -1635693.8750
v  1975443.7500 111576.3359 -1779095.8750
v  2255826.2500 111576.3281 -1746473.8750
v  1975443.7500 -1756.5469 -1779095.8750
v  2255826.2500 -1756.5508 -1746473.8750
# 24 vertices

vn 0.9624 -0.0000 0.2715
vn -0.9346 0.0000 -0.3633
vn -0.2439 0.0000 0.9698
vn 0.0000 1.0000 -0.0000
vn 0.2439 -0.0000 -0.9698
vn -0.0000 -1.0000 -0.0000
vn 0.0135 -0.0000 1.0070
vn -0.0578 0.0000 1.0036
vn -0.0570 0.0000 -1.0065
vn 0.0621 -0.0000 -1.0032
vn -0.1515 0.0000 0.9912
vn 0.1537 -0.0000 -0.9908
# 12 vertex normals

vt 1.0000 0.0000 0.0000
vt 1.0000 1.0000 0.0000
vt 0.0000 1.0000 0.0000
vt 0.0000 0.0000 0.0000
vt 1.0000 0.3526 0.0000
vt 0.0000 0.3526 0.0000
vt 0.0000 0.2500 0.0000
vt 1.0000 0.2500 0.0000
vt 0.0000 0.7500 0.0000
vt 1.0000 0.7500 0.0000
vt 0.0000 0.6080 0.0000
vt 1.0000 0.6080 0.0000
vt 1.0000 0.6001 0.0000
vt 0.0000 0.6001 0.0000
# 14 texture coords

g Box008
usemtl _crayfishdiffuse
s off
f -24/-14/-12 -23/-13/-12 -22/-12/-12 -21/-11/-12 
f -20/-11/-11 -19/-14/-11 -18/-13/-11 -17/-12/-11 
f -16/-10/-10 -15/-9/-10 -14/-8/-10 -13/-7/-10 
f -12/-10/-9 -16/-9/-9 -13/-8/-9 -11/-7/-9 
f -10/-10/-8 -12/-9/-8 -11/-8/-8 -9/-7/-8 
f -15/-10/-7 -10/-9/-7 -9/-8/-7 -14/-7/-7 
f -19/-13/-6 -20/-12/-6 -8/-6/-6 -7/-5/-6 
f -7/-5/-5 -8/-6/-5 -6/-4/-5 -5/-3/-5 
f -24/-11/-10 -21/-14/-10 -13/-7/-10 -14/-8/-10 
f -18/-13/-9 -19/-12/-9 -7/-6/-9 -4/-5/-9 
f -4/-5/-9 -7/-6/-9 -5/-4/-9 -3/-2/-9 
f -21/-11/-9 -22/-14/-9 -11/-7/-9 -13/-8/-9 
f -17/-13/-4 -18/-12/-4 -4/-6/-4 -2/-5/-4 
f -2/-5/-3 -4/-6/-3 -3/-1/-3 -1/-2/-3 
f -22/-11/-8 -23/-14/-8 -9/-7/-8 -11/-8/-8 
f -20/-13/-7 -17/-12/-7 -2/-6/-7 -8/-5/-7 
f -8/-5/-7 -2/-6/-7 -1/-1/-7 -6/-3/-7 
f -23/-11/-7 -24/-14/-7 -14/-7/-7 -9/-8/-7 
f -16/-10/-2 -5/-3/-2 -6/-4/-2 -15/-9/-2 
f -12/-10/-9 -3/-2/-9 -5/-4/-9 -16/-9/-9 
f -10/-10/-1 -1/-2/-1 -3/-1/-1 -12/-9/-1 
f -15/-10/-7 -6/-3/-7 -1/-1/-7 -10/-9/-7 
# 22 polygons

#
# object Box009
#

v  2672503.5000 184745.9219 -1359350.2500
v  2672503.5000 103837.3281 -1359350.2500
v  2592365.0000 103837.3359 -1439488.7500
v  2592365.0000 184745.9375 -1439488.7500
v  1867154.2500 184745.8281 -554005.9375
v  1787015.8750 184745.8438 -634144.3750
v  1814929.0000 125490.5781 -662057.6250
v  1895067.5000 125490.5703 -581919.1250
v  2207458.5000 184745.8750 -1019048.6250
v  2287596.7500 184745.8750 -938910.1250
v  2488933.5000 184745.8906 -1140246.7500
v  2408795.0000 184745.9063 -1220385.2500
v  2207458.5000 103837.2891 -1019048.6250
v  2408795.0000 103837.3125 -1220385.2500
v  2287596.7500 103837.2813 -938910.1250
v  2488933.5000 103837.2969 -1140246.8750
v  2086260.2500 184745.8438 -737573.4375
v  2006121.7500 184745.8594 -817711.9375
v  2006121.6250 111071.2813 -817711.8750
v  2086260.1250 111071.2656 -737573.3750
# 20 vertices

vn 0.7071 0.0000 -0.7071
vn -0.6430 -0.4162 0.6430
vn 0.0000 1.0000 0.0000
vn -0.7071 0.0000 -0.7071
vn -0.0000 -1.0000 -0.0000
vn 0.7071 -0.0000 0.7071
vn -0.0000 1.0000 0.0000
vn -0.6336 0.0202 -0.7734
vn -0.7687 0.0000 -0.6396
vn -0.0603 -0.9964 0.0603
vn -0.0261 -0.9993 0.0261
vn 0.6336 -0.0202 0.7734
vn 0.7687 -0.0000 0.6396
# 13 vertex normals

vt 1.0000 0.0000 0.0000
vt 1.0000 1.0000 0.0000
vt 0.0000 1.0000 0.0000
vt 0.0000 0.0000 0.0000
vt 1.0000 0.5000 0.0000
vt 0.0000 0.5000 0.0000
vt 0.0000 0.2500 0.0000
vt 1.0000 0.2500 0.0000
vt 0.0000 0.7500 0.0000
vt 1.0000 0.7500 0.0000
# 10 texture coords

g Box009
usemtl _crayfishdiffuse
s off
f -20/-10/-13 -19/-9/-13 -18/-8/-13 -17/-7/-13 
f -16/-7/-12 -15/-10/-12 -14/-9/-12 -13/-8/-12 
f -12/-6/-11 -11/-5/-11 -10/-4/-11 -9/-3/-11 
f -8/-6/-10 -12/-5/-10 -9/-4/-10 -7/-3/-10 
f -6/-6/-9 -8/-5/-9 -7/-4/-9 -5/-3/-9 
f -11/-6/-8 -6/-5/-8 -5/-4/-8 -10/-3/-8 
f -15/-9/-11 -16/-8/-11 -4/-2/-11 -3/-1/-11 
f -3/-1/-11 -4/-2/-11 -11/-5/-11 -12/-6/-11 
f -20/-7/-7 -17/-10/-7 -9/-3/-7 -10/-4/-7 
f -14/-9/-6 -15/-8/-6 -3/-2/-6 -2/-1/-6 
f -2/-1/-10 -3/-2/-10 -12/-5/-10 -8/-6/-10 
f -17/-7/-5 -18/-10/-5 -7/-3/-5 -9/-4/-5 
f -13/-9/-4 -14/-8/-4 -2/-2/-4 -1/-1/-4 
f -1/-1/-3 -2/-2/-3 -8/-5/-3 -6/-6/-3 
f -18/-7/-9 -19/-10/-9 -5/-3/-9 -7/-4/-9 
f -16/-9/-2 -13/-8/-2 -1/-2/-2 -4/-1/-2 
f -4/-1/-8 -1/-2/-8 -6/-5/-8 -11/-6/-8 
f -19/-7/-1 -20/-10/-1 -10/-3/-1 -5/-4/-1 
# 18 polygons

#
# object Box010
#

v  1908175.5000 76341.4219 -1185235.1250
v  1896008.1250 -3337.9922 -1192259.8750
v  1944034.7500 -1622.8047 -1294899.2500
v  1956202.0000 78056.6094 -1287874.5000
v  890881.6250 273362.7813 -1657953.3750
v  938908.1250 275077.9688 -1760592.7500
v  965256.5000 209894.1719 -1749353.2500
v  917229.9375 208178.9844 -1646713.8750
v  1436906.8750 176186.9844 -1501476.8750
v  1388880.3750 174471.7969 -1398837.5000
v  1643204.2500 125216.4844 -1280658.6250
v  1691230.7500 126931.6719 -1383298.1250
v  1424739.5000 96507.5938 -1508501.7500
v  1679063.3750 47252.2656 -1390322.8750
v  1376713.0000 94792.4063 -1405862.2500
v  1631036.8750 45537.0781 -1287683.5000
v  1134556.5000 223727.1250 -1517016.2500
v  1182583.0000 225442.3125 -1619655.6250
v  1171503.5000 152887.0156 -1626052.3750
v  1123477.0000 151171.8281 -1523413.0000
# 20 vertices

vn 0.8932 -0.1730 0.4151
vn -0.8748 -0.2526 -0.4135
vn 0.1504 0.9848 0.0868
vn 0.4238 0.0151 -0.9056
vn -0.1504 -0.9848 -0.0868
vn -0.4238 -0.0151 0.9056
vn 0.5129 0.0178 -0.8583
vn 0.3404 0.0309 -0.9398
vn -0.2260 -0.9665 -0.1219
vn -0.1833 -0.9777 -0.1021
vn -0.5129 -0.0178 0.8583
vn -0.3404 -0.0309 0.9398
# 12 vertex normals

vt 1.0000 0.0000 0.0000
vt 1.0000 1.0000 0.0000
vt 0.0000 1.0000 0.0000
vt 0.0000 0.0000 0.0000
vt 1.0000 0.5000 0.0000
vt 0.0000 0.5000 0.0000
vt 0.0000 0.2500 0.0000
vt 1.0000 0.2500 0.0000
vt 0.0000 0.7500 0.0000
vt 1.0000 0.7500 0.0000
# 10 texture coords

g Box010
usemtl _crayfishdiffuse
s off
f -20/-10/-12 -19/-9/-12 -18/-8/-12 -17/-7/-12 
f -16/-7/-11 -15/-10/-11 -14/-9/-11 -13/-8/-11 
f -12/-6/-10 -11/-5/-10 -10/-4/-10 -9/-3/-10 
f -8/-6/-9 -12/-5/-9 -9/-4/-9 -7/-3/-9 
f -6/-6/-8 -8/-5/-8 -7/-4/-8 -5/-3/-8 
f -11/-6/-7 -6/-5/-7 -5/-4/-7 -10/-3/-7 
f -15/-9/-10 -16/-8/-10 -4/-2/-10 -3/-1/-10 
f -3/-1/-10 -4/-2/-10 -11/-5/-10 -12/-6/-10 
f -20/-7/-10 -17/-10/-10 -9/-3/-10 -10/-4/-10 
f -14/-9/-6 -15/-8/-6 -3/-2/-6 -2/-1/-6 
f -2/-1/-9 -3/-2/-9 -12/-5/-9 -8/-6/-9 
f -17/-7/-5 -18/-10/-5 -7/-3/-5 -9/-4/-5 
f -13/-9/-4 -14/-8/-4 -2/-2/-4 -1/-1/-4 
f -1/-1/-3 -2/-2/-3 -8/-5/-3 -6/-6/-3 
f -18/-7/-8 -19/-10/-8 -5/-3/-8 -7/-4/-8 
f -16/-9/-2 -13/-8/-2 -1/-2/-2 -4/-1/-2 
f -4/-1/-7 -1/-2/-7 -6/-5/-7 -11/-6/-7 
f -19/-7/-1 -20/-10/-1 -10/-3/-1 -5/-4/-1 
# 18 polygons

#
# object Box011
#

v  1040305.1250 76341.4219 -221363.0000
v  1052472.5000 -3337.9961 -228387.8438
v  1117347.5000 -1622.8086 -135475.9219
v  1105180.2500 78056.6094 -128451.0781
v  1958338.2500 273362.7813 -866006.1250
v  2023213.2500 275077.9688 -773094.2500
v  2000305.5000 209894.1719 -755895.6875
v  1935430.3750 208178.9844 -848807.5625
v  1549812.8750 176187.0000 -471372.6875
v  1484937.7500 174471.8125 -564284.6250
v  1255430.1250 125216.4844 -403123.1250
v  1320305.1250 126931.6719 -310211.1875
v  1561980.2500 96507.5859 -478397.5313
v  1332472.5000 47252.2617 -317236.0313
v  1497105.1250 94792.3984 -571309.4375
v  1267597.3750 45537.0742 -410147.9375
v  1714445.5000 223727.1250 -725446.0625
v  1779320.7500 225442.3125 -632534.1250
v  1790400.1250 152887.0156 -638930.9375
v  1725525.0000 151171.8281 -731842.8750
# 20 vertices

vn -0.8060 -0.1730 0.5660
vn 0.7955 -0.2526 -0.5508
vn -0.1504 0.9848 0.0868
vn 0.5724 0.0151 0.8198
vn 0.1504 -0.9848 -0.0868
vn -0.5724 -0.0151 -0.8198
vn 0.4868 0.0178 0.8733
vn 0.6436 0.0309 0.7647
vn 0.2186 -0.9665 -0.1348
vn 0.1801 -0.9777 -0.1077
vn -0.4868 -0.0178 -0.8733
vn -0.6436 -0.0309 -0.7647
# 12 vertex normals

vt 1.0000 0.0000 0.0000
vt 1.0000 1.0000 0.0000
vt 0.0000 1.0000 0.0000
vt 0.0000 0.0000 0.0000
vt 1.0000 0.5000 0.0000
vt 0.0000 0.5000 0.0000
vt 0.0000 0.2500 0.0000
vt 1.0000 0.2500 0.0000
vt 0.0000 0.7500 0.0000
vt 1.0000 0.7500 0.0000
# 10 texture coords

g Box011
usemtl _crayfishdiffuse
s off
f -20/-10/-12 -19/-9/-12 -18/-8/-12 -17/-7/-12 
f -16/-7/-11 -15/-10/-11 -14/-9/-11 -13/-8/-11 
f -12/-6/-10 -11/-5/-10 -10/-4/-10 -9/-3/-10 
f -8/-6/-9 -12/-5/-9 -9/-4/-9 -7/-3/-9 
f -6/-6/-8 -8/-5/-8 -7/-4/-8 -5/-3/-8 
f -11/-6/-7 -6/-5/-7 -5/-4/-7 -10/-3/-7 
f -15/-9/-10 -16/-8/-10 -4/-2/-10 -3/-1/-10 
f -3/-1/-10 -4/-2/-10 -11/-5/-10 -12/-6/-10 
f -20/-7/-10 -17/-10/-10 -9/-3/-10 -10/-4/-10 
f -14/-9/-6 -15/-8/-6 -3/-2/-6 -2/-1/-6 
f -2/-1/-9 -3/-2/-9 -12/-5/-9 -8/-6/-9 
f -17/-7/-5 -18/-10/-5 -7/-3/-5 -9/-4/-5 
f -13/-9/-4 -14/-8/-4 -2/-2/-4 -1/-1/-4 
f -1/-1/-3 -2/-2/-3 -8/-5/-3 -6/-6/-3 
f -18/-7/-8 -19/-10/-8 -5/-3/-8 -7/-4/-8 
f -16/-9/-2 -13/-8/-2 -1/-2/-2 -4/-1/-2 
f -4/-1/-7 -1/-2/-7 -6/-5/-7 -11/-6/-7 
f -19/-7/-1 -20/-10/-1 -10/-3/-1 -5/-4/-1 
# 18 polygons

